<svg width="1600" height="1000" viewBox="0 0 1600 1000" fill="none" xmlns="http://www.w3.org/2000/svg">
  <defs>
    <linearGradient id="bg" x1="0" y1="0" x2="1600" y2="1000" gradientUnits="userSpaceOnUse">
      <stop stop-color="#171715"/>
      <stop offset="1" stop-color="#23211D"/>
    </linearGradient>
    <radialGradient id="glowRust" cx="0" cy="0" r="1" gradientUnits="userSpaceOnUse" gradientTransform="translate(1110 168) rotate(90) scale(280 460)">
      <stop stop-color="#C4501A" stop-opacity="0.32"/>
      <stop offset="1" stop-color="#C4501A" stop-opacity="0"/>
    </radialGradient>
    <radialGradient id="glowClay" cx="0" cy="0" r="1" gradientUnits="userSpaceOnUse" gradientTransform="translate(310 64) rotate(90) scale(220 520)">
      <stop stop-color="#F5EDE4" stop-opacity="0.08"/>
      <stop offset="1" stop-color="#F5EDE4" stop-opacity="0"/>
    </radialGradient>
    <linearGradient id="panel" x1="0" y1="0" x2="1" y2="1">
      <stop stop-color="rgba(255,255,255,0.05)"/>
      <stop offset="1" stop-color="rgba(255,255,255,0.02)"/>
    </linearGradient>
    <linearGradient id="panelWarm" x1="0" y1="0" x2="1" y2="1">
      <stop stop-color="#2A251F"/>
      <stop offset="1" stop-color="#1E1C18"/>
    </linearGradient>
    <linearGradient id="mapPanel" x1="0" y1="0" x2="1" y2="1">
      <stop stop-color="#211F1A"/>
      <stop offset="1" stop-color="#181715"/>
    </linearGradient>
    <filter id="shadow" x="-20%" y="-20%" width="140%" height="140%">
      <feDropShadow dx="0" dy="18" stdDeviation="20" flood-color="#000000" flood-opacity="0.35"/>
    </filter>
    <filter id="softGlow" x="-40%" y="-40%" width="180%" height="180%">
      <feGaussianBlur stdDeviation="14"/>
    </filter>
  </defs>

  <rect width="1600" height="1000" fill="url(#bg)"/>
  <rect width="1600" height="1000" fill="url(#glowRust)"/>
  <rect width="1600" height="1000" fill="url(#glowClay)"/>

  <g opacity="0.1">
    <path d="M0 76H1600" stroke="#F5EDE4" stroke-opacity="0.28"/>
    <path d="M0 320H1600" stroke="#F5EDE4" stroke-opacity="0.14"/>
    <path d="M0 650H1600" stroke="#F5EDE4" stroke-opacity="0.1"/>
  </g>

  <g filter="url(#shadow)">
    <rect x="28" y="22" width="1544" height="956" rx="34" fill="#151412" stroke="rgba(245,237,228,0.08)"/>
  </g>

  <rect x="48" y="42" width="232" height="916" rx="28" fill="#181715" stroke="rgba(245,237,228,0.08)"/>
  <circle cx="92" cy="92" r="22" fill="#C4501A" fill-opacity="0.18"/>
  <path d="M82 93C82 84.1634 89.1634 77 98 77H102C110.837 77 118 84.1634 118 93V95C118 103.837 110.837 111 102 111H98C89.1634 111 82 103.837 82 95V93Z" fill="#C4501A"/>
  <text x="130" y="88" fill="#F5EDE4" font-family="Arial, Helvetica, sans-serif" font-size="24" font-weight="700">Dobly</text>
  <text x="130" y="111" fill="rgba(245,237,228,0.54)" font-family="Arial, Helvetica, sans-serif" font-size="12" letter-spacing="2">BUSINESS ENGINE</text>

  <rect x="66" y="152" width="196" height="58" rx="18" fill="#2A221B" stroke="rgba(196,80,26,0.34)"/>
  <text x="92" y="186" fill="#F5EDE4" font-family="Arial, Helvetica, sans-serif" font-size="15" font-weight="700">Command Center</text>
  <circle cx="232" cy="182" r="8" fill="#C4501A"/>

  <g fill="#F5EDE4" fill-opacity="0.85" font-family="Arial, Helvetica, sans-serif" font-size="14">
    <text x="82" y="260">Homebase</text>
    <text x="82" y="302">Coworkers</text>
    <text x="82" y="344">Signals</text>
    <text x="82" y="386">States</text>
    <text x="82" y="428">Approvals</text>
    <text x="82" y="470">Memory</text>
    <text x="82" y="512">Channels</text>
    <text x="82" y="554">Boardroom</text>
    <text x="82" y="596">Reports</text>
    <text x="82" y="638">Billing</text>
    <text x="82" y="680">Settings</text>
  </g>
  <g fill="rgba(245,237,228,0.22)">
    <circle cx="246" cy="255" r="3"/><circle cx="246" cy="297" r="3"/><circle cx="246" cy="339" r="3"/>
    <circle cx="246" cy="381" r="3"/><circle cx="246" cy="423" r="3"/><circle cx="246" cy="465" r="3"/>
    <circle cx="246" cy="507" r="3"/><circle cx="246" cy="549" r="3"/><circle cx="246" cy="591" r="3"/>
    <circle cx="246" cy="633" r="3"/><circle cx="246" cy="675" r="3"/>
  </g>

  <rect x="66" y="750" width="196" height="164" rx="22" fill="#1E1B18" stroke="rgba(245,237,228,0.08)"/>
  <text x="84" y="782" fill="#F5EDE4" font-family="Arial, Helvetica, sans-serif" font-size="12" letter-spacing="2">TRUST STAGE</text>
  <text x="84" y="818" fill="#F5EDE4" font-family="Arial, Helvetica, sans-serif" font-size="28" font-weight="700">Supervised</text>
  <text x="84" y="844" fill="rgba(245,237,228,0.56)" font-family="Arial, Helvetica, sans-serif" font-size="13">27 low-risk actions auto-approved</text>
  <rect x="84" y="866" width="160" height="10" rx="5" fill="rgba(245,237,228,0.08)"/>
  <rect x="84" y="866" width="108" height="10" rx="5" fill="#C4501A"/>
  <text x="84" y="902" fill="rgba(245,237,228,0.72)" font-family="Arial, Helvetica, sans-serif" font-size="13">Shadow mode active for Finance</text>

  <rect x="306" y="42" width="1240" height="88" rx="24" fill="#181715" stroke="rgba(245,237,228,0.08)"/>
  <text x="338" y="77" fill="#F5EDE4" font-family="Arial, Helvetica, sans-serif" font-size="32" font-weight="700">Your business runs. You direct it.</text>
  <text x="338" y="105" fill="rgba(245,237,228,0.58)" font-family="Arial, Helvetica, sans-serif" font-size="15">Command center for coworkers, states, signals, pressure, and governed action.</text>
  <rect x="1188" y="62" width="152" height="48" rx="16" fill="#2A221B" stroke="rgba(196,80,26,0.34)"/>
  <text x="1225" y="92" fill="#F5EDE4" font-family="Arial, Helvetica, sans-serif" font-size="14" font-weight="700">Run Simulation</text>
  <rect x="1356" y="62" width="160" height="48" rx="16" fill="#C4501A"/>
  <text x="1393" y="92" fill="#F5EDE4" font-family="Arial, Helvetica, sans-serif" font-size="14" font-weight="700">Generate Coworker</text>

  <rect x="306" y="152" width="884" height="520" rx="28" fill="url(#mapPanel)" stroke="rgba(245,237,228,0.08)"/>
  <text x="338" y="190" fill="#F5EDE4" font-family="Arial, Helvetica, sans-serif" font-size="13" letter-spacing="2">LIVE OPERATING MAP</text>
  <text x="338" y="223" fill="rgba(245,237,228,0.56)" font-family="Arial, Helvetica, sans-serif" font-size="14">Pressure, momentum, blocked flows, and coworker ownership across the business.</text>

  <circle cx="500" cy="345" r="78" fill="#C4501A" fill-opacity="0.08"/>
  <circle cx="500" cy="345" r="52" fill="#241C18" stroke="rgba(196,80,26,0.56)"/>
  <text x="467" y="341" fill="#F5EDE4" font-family="Arial, Helvetica, sans-serif" font-size="20" font-weight="700">Sales</text>
  <text x="453" y="365" fill="rgba(245,237,228,0.54)" font-family="Arial, Helvetica, sans-serif" font-size="13">12 leads · 3 hot</text>

  <circle cx="730" cy="250" r="70" fill="#9A6433" fill-opacity="0.08"/>
  <circle cx="730" cy="250" r="46" fill="#201B18" stroke="rgba(245,237,228,0.22)"/>
  <text x="688" y="248" fill="#F5EDE4" font-family="Arial, Helvetica, sans-serif" font-size="18" font-weight="700">Support</text>
  <text x="680" y="270" fill="rgba(245,237,228,0.54)" font-family="Arial, Helvetica, sans-serif" font-size="12">SLA drift low</text>

  <circle cx="896" cy="430" r="76" fill="#D6E7FF" fill-opacity="0.06"/>
  <circle cx="896" cy="430" r="48" fill="#1A1A19" stroke="rgba(147,186,255,0.46)"/>
  <text x="859" y="427" fill="#F5EDE4" font-family="Arial, Helvetica, sans-serif" font-size="18" font-weight="700">Finance</text>
  <text x="842" y="449" fill="rgba(245,237,228,0.54)" font-family="Arial, Helvetica, sans-serif" font-size="12">2 invoices at risk</text>

  <circle cx="709" cy="495" r="64" fill="#8FD9BF" fill-opacity="0.06"/>
  <circle cx="709" cy="495" r="40" fill="#1A1A19" stroke="rgba(108,201,160,0.36)"/>
  <text x="662" y="492" fill="#F5EDE4" font-family="Arial, Helvetica, sans-serif" font-size="17" font-weight="700">Operations</text>
  <text x="663" y="512" fill="rgba(245,237,228,0.54)" font-family="Arial, Helvetica, sans-serif" font-size="12">Healthy momentum</text>

  <circle cx="996" cy="264" r="66" fill="#F5EDE4" fill-opacity="0.04"/>
  <circle cx="996" cy="264" r="42" fill="#1B1A18" stroke="rgba(245,237,228,0.18)"/>
  <text x="961" y="261" fill="#F5EDE4" font-family="Arial, Helvetica, sans-serif" font-size="16" font-weight="700">Boardroom</text>
  <text x="953" y="281" fill="rgba(245,237,228,0.54)" font-family="Arial, Helvetica, sans-serif" font-size="12">2 strategic briefs</text>

  <circle cx="462" cy="538" r="62" fill="#E2CAAF" fill-opacity="0.05"/>
  <circle cx="462" cy="538" r="38" fill="#1A1A19" stroke="rgba(245,237,228,0.18)"/>
  <text x="421" y="536" fill="#F5EDE4" font-family="Arial, Helvetica, sans-serif" font-size="17" font-weight="700">Marketing</text>
  <text x="425" y="556" fill="rgba(245,237,228,0.54)" font-family="Arial, Helvetica, sans-serif" font-size="12">Low output warning</text>

  <path d="M544 344C602 318 648 294 684 271" stroke="#C4501A" stroke-opacity="0.55" stroke-width="3" stroke-linecap="round"/>
  <path d="M546 366C650 388 800 412 847 421" stroke="#F5EDE4" stroke-opacity="0.22" stroke-width="2.5" stroke-linecap="round"/>
  <path d="M701 287C782 286 909 273 949 266" stroke="#F5EDE4" stroke-opacity="0.16" stroke-width="2.5" stroke-linecap="round"/>
  <path d="M683 485C628 493 542 516 500 527" stroke="#D6E7FF" stroke-opacity="0.28" stroke-width="2.5" stroke-linecap="round"/>
  <path d="M747 473C798 464 839 451 859 444" stroke="#8FD9BF" stroke-opacity="0.24" stroke-width="2.5" stroke-linecap="round"/>

  <circle cx="580" cy="319" r="8" fill="#C4501A"/>
  <circle cx="804" cy="404" r="7" fill="#F5EDE4" fill-opacity="0.42"/>
  <circle cx="662" cy="301" r="6" fill="#C4501A" fill-opacity="0.72"/>

  <g>
    <rect x="338" y="594" width="392" height="56" rx="18" fill="#1D1A17" stroke="rgba(196,80,26,0.24)"/>
    <text x="360" y="628" fill="#F5EDE4" font-family="Arial, Helvetica, sans-serif" font-size="15" font-weight="700">Pressure rising:</text>
    <text x="474" y="628" fill="rgba(245,237,228,0.72)" font-family="Arial, Helvetica, sans-serif" font-size="15">Sales follow-up lagging East region by 18 min</text>
  </g>

  <rect x="1212" y="152" width="334" height="520" rx="28" fill="#181715" stroke="rgba(245,237,228,0.08)"/>
  <text x="1242" y="189" fill="#F5EDE4" font-family="Arial, Helvetica, sans-serif" font-size="13" letter-spacing="2">WHAT NEEDS DECISION</text>
  <text x="1242" y="221" fill="rgba(245,237,228,0.56)" font-family="Arial, Helvetica, sans-serif" font-size="14">High-context approvals with simulation, memory, and pressure rationale.</text>

  <rect x="1242" y="248" width="274" height="118" rx="20" fill="#221C18" stroke="rgba(196,80,26,0.3)"/>
  <text x="1264" y="278" fill="#F5EDE4" font-family="Arial, Helvetica, sans-serif" font-size="12" letter-spacing="2">FINANCE COWORKER</text>
  <text x="1264" y="312" fill="#F5EDE4" font-family="Arial, Helvetica, sans-serif" font-size="22" font-weight="700">Invoice follow-up at risk</text>
  <text x="1264" y="338" fill="rgba(245,237,228,0.6)" font-family="Arial, Helvetica, sans-serif" font-size="13">3 clients match the same late-pay pattern. Dobly suggests a staggered recovery sequence.</text>
  <rect x="1264" y="348" width="86" height="28" rx="14" fill="rgba(196,80,26,0.16)"/>
  <text x="1287" y="367" fill="#F5EDE4" font-family="Arial, Helvetica, sans-serif" font-size="11">Simulate</text>
  <rect x="1360" y="348" width="84" height="28" rx="14" fill="rgba(245,237,228,0.08)"/>
  <text x="1389" y="367" fill="#F5EDE4" font-family="Arial, Helvetica, sans-serif" font-size="11">Review</text>
  <rect x="1452" y="348" width="50" height="28" rx="14" fill="#C4501A"/>
  <text x="1466" y="367" fill="#F5EDE4" font-family="Arial, Helvetica, sans-serif" font-size="11">Run</text>

  <rect x="1242" y="388" width="274" height="118" rx="20" fill="#1D1A17" stroke="rgba(245,237,228,0.08)"/>
  <text x="1264" y="418" fill="#F5EDE4" font-family="Arial, Helvetica, sans-serif" font-size="12" letter-spacing="2">SUPPORT COWORKER</text>
  <text x="1264" y="452" fill="#F5EDE4" font-family="Arial, Helvetica, sans-serif" font-size="22" font-weight="700">Escalate East region tension</text>
  <text x="1264" y="478" fill="rgba(245,237,228,0.6)" font-family="Arial, Helvetica, sans-serif" font-size="13">Sentiment fell below neutral in 5 threads. Pattern matches prior churn risk.</text>

  <rect x="1242" y="528" width="274" height="118" rx="20" fill="#1D1A17" stroke="rgba(245,237,228,0.08)"/>
  <text x="1264" y="558" fill="#F5EDE4" font-family="Arial, Helvetica, sans-serif" font-size="12" letter-spacing="2">GENERAL MANAGER</text>
  <text x="1264" y="592" fill="#F5EDE4" font-family="Arial, Helvetica, sans-serif" font-size="22" font-weight="700">Ops cannot absorb lead growth</text>
  <text x="1264" y="618" fill="rgba(245,237,228,0.6)" font-family="Arial, Helvetica, sans-serif" font-size="13">Marketing output improved 41% while scheduling throughput stayed flat.</text>

  <rect x="306" y="696" width="402" height="238" rx="28" fill="#181715" stroke="rgba(245,237,228,0.08)"/>
  <text x="338" y="734" fill="#F5EDE4" font-family="Arial, Helvetica, sans-serif" font-size="13" letter-spacing="2">COWORKER FLEET</text>
  <text x="338" y="766" fill="rgba(245,237,228,0.56)" font-family="Arial, Helvetica, sans-serif" font-size="14">Generated coworkers should feel like reliable operators, not just automations.</text>

  <rect x="338" y="790" width="164" height="118" rx="18" fill="#211C18" stroke="rgba(196,80,26,0.22)"/>
  <text x="356" y="821" fill="#F5EDE4" font-family="Arial, Helvetica, sans-serif" font-size="18" font-weight="700">Amina</text>
  <text x="356" y="843" fill="rgba(245,237,228,0.56)" font-family="Arial, Helvetica, sans-serif" font-size="12">Sales Coworker</text>
  <text x="356" y="874" fill="#F5EDE4" font-family="Arial, Helvetica, sans-serif" font-size="24" font-weight="700">92%</text>
  <text x="408" y="874" fill="rgba(245,237,228,0.56)" font-family="Arial, Helvetica, sans-serif" font-size="12">trust</text>
  <text x="356" y="896" fill="rgba(245,237,228,0.68)" font-family="Arial, Helvetica, sans-serif" font-size="12">Owns hot-lead response</text>

  <rect x="520" y="790" width="164" height="118" rx="18" fill="#1E1A17" stroke="rgba(245,237,228,0.08)"/>
  <text x="538" y="821" fill="#F5EDE4" font-family="Arial, Helvetica, sans-serif" font-size="18" font-weight="700">Kamau</text>
  <text x="538" y="843" fill="rgba(245,237,228,0.56)" font-family="Arial, Helvetica, sans-serif" font-size="12">Finance Coworker</text>
  <text x="538" y="874" fill="#F5EDE4" font-family="Arial, Helvetica, sans-serif" font-size="24" font-weight="700">Shadow</text>
  <text x="538" y="896" fill="rgba(245,237,228,0.68)" font-family="Arial, Helvetica, sans-serif" font-size="12">Simulates before collections</text>

  <rect x="734" y="696" width="430" height="238" rx="28" fill="#181715" stroke="rgba(245,237,228,0.08)"/>
  <text x="766" y="734" fill="#F5EDE4" font-family="Arial, Helvetica, sans-serif" font-size="13" letter-spacing="2">SIGNALS AND STATES</text>
  <text x="766" y="767" fill="#F5EDE4" font-family="Arial, Helvetica, sans-serif" font-size="22" font-weight="700">What Dobly is maintaining</text>

  <rect x="766" y="791" width="366" height="42" rx="14" fill="#221C18"/>
  <text x="786" y="817" fill="#F5EDE4" font-family="Arial, Helvetica, sans-serif" font-size="14">No qualified lead waits more than 5 minutes</text>
  <rect x="1070" y="801" width="44" height="22" rx="11" fill="rgba(196,80,26,0.22)"/>
  <text x="1082" y="816" fill="#F5EDE4" font-family="Arial, Helvetica, sans-serif" font-size="10">RISK</text>

  <rect x="766" y="845" width="366" height="42" rx="14" fill="#1F1B18"/>
  <text x="786" y="871" fill="#F5EDE4" font-family="Arial, Helvetica, sans-serif" font-size="14">No invoice crosses 7 days without follow-up</text>
  <rect x="1060" y="855" width="54" height="22" rx="11" fill="rgba(147,186,255,0.18)"/>
  <text x="1072" y="870" fill="#F5EDE4" font-family="Arial, Helvetica, sans-serif" font-size="10">TRACKED</text>

  <rect x="766" y="899" width="366" height="42" rx="14" fill="#1F1B18"/>
  <text x="786" y="925" fill="#F5EDE4" font-family="Arial, Helvetica, sans-serif" font-size="14">No unhappy customer goes unseen</text>
  <rect x="1068" y="909" width="46" height="22" rx="11" fill="rgba(108,201,160,0.18)"/>
  <text x="1082" y="924" fill="#F5EDE4" font-family="Arial, Helvetica, sans-serif" font-size="10">GOOD</text>

  <rect x="1186" y="696" width="360" height="238" rx="28" fill="#181715" stroke="rgba(245,237,228,0.08)"/>
  <text x="1218" y="734" fill="#F5EDE4" font-family="Arial, Helvetica, sans-serif" font-size="13" letter-spacing="2">OWNER BRIEFING</text>
  <text x="1218" y="768" fill="#F5EDE4" font-family="Arial, Helvetica, sans-serif" font-size="22" font-weight="700">Before pressure compounds</text>
  <text x="1218" y="805" fill="rgba(245,237,228,0.72)" font-family="Arial, Helvetica, sans-serif" font-size="14">Sales is not the real bottleneck today. Scheduling throughput is. If unchanged, lead wait time will breach in 4 hours.</text>
  <text x="1218" y="854" fill="rgba(245,237,228,0.56)" font-family="Arial, Helvetica, sans-serif" font-size="13">Recommended next move</text>
  <rect x="1218" y="870" width="160" height="34" rx="17" fill="#C4501A"/>
  <text x="1250" y="892" fill="#F5EDE4" font-family="Arial, Helvetica, sans-serif" font-size="12" font-weight="700">Review scheduling fix</text>
  <rect x="1390" y="870" width="114" height="34" rx="17" fill="rgba(245,237,228,0.08)"/>
  <text x="1422" y="892" fill="#F5EDE4" font-family="Arial, Helvetica, sans-serif" font-size="12">Open boardroom</text>
</svg>
